<?xml version="1.0" encoding="utf-8"?>
<!-- Generator: Adobe Illustrator 19.0.0, SVG Export Plug-In . SVG Version: 6.00 Build 0)  -->
<svg version="1.1" id="Layer_1" xmlns="http://www.w3.org/2000/svg" xmlns:xlink="http://www.w3.org/1999/xlink" x="0px" y="0px"
	 viewBox="-383 615.9 32 32" style="enable-background:new -383 615.9 32 32;" xml:space="preserve">
<style type="text/css">
	.st0{display:none;}
	.st1{display:inline;}
	.st2{display:inline;stroke:#333333;stroke-width:2;stroke-miterlimit:10;}
	.st3{stroke:#3B97D3;stroke-width:2;stroke-miterlimit:10;}
	.st4{display:inline;fill:none;stroke:#000000;stroke-width:2;stroke-miterlimit:10;}
	.st5{fill:none;stroke:#000000;stroke-width:2;stroke-miterlimit:10;}
	.st6{fill:#5FC6FF;}
</style>
<g class="st0">
	<rect x="-403.4" y="608" class="st1" width="430.2" height="215"/>
</g>
<g class="st0">
	<circle class="st2" cx="-367" cy="637" r="15"/>
	<g class="st1">
		<polyline points="-371.8,633.4 -373.5,633.4 -371.5,640.2 -360.8,640.2 -358.7,633.4 -369.8,633.4 		"/>
		<circle cx="-370.2" cy="643.3" r="2"/>
		<circle cx="-362.1" cy="643.3" r="2"/>
		<polyline class="st3" points="-369.9,635.3 -371.6,629.7 -374.5,629.7 		"/>
	</g>
</g>
<g class="st0">
	<circle class="st4" cx="-367" cy="637" r="15"/>
	<g class="st1">
		<polyline points="-371.8,633.4 -373.5,633.4 -371.5,640.2 -360.8,640.2 -358.7,633.4 -369.8,633.4 		"/>
		<circle cx="-370.2" cy="643.3" r="2"/>
		<circle cx="-362.1" cy="643.3" r="2"/>
		<polyline class="st5" points="-369.9,635.3 -371.6,629.7 -374.5,629.7 		"/>
	</g>
</g>
<g class="st0">
	<circle class="st4" cx="-367" cy="637" r="15"/>
	<g class="st1">
		<polyline points="-371.8,633.4 -373.5,633.4 -371.5,640.2 -360.8,640.2 -358.7,633.4 -369.8,633.4 		"/>
		<circle cx="-370.2" cy="643.3" r="2"/>
		<circle cx="-362.1" cy="643.3" r="2"/>
		<polyline class="st5" points="-369.9,635.3 -371.6,629.7 -374.5,629.7 		"/>
	</g>
</g>
<g>
	<path class="st6" d="M-367,615.9c-8.8,0-16,7.2-16,16s7.2,16,16,16s16-7.2,16-16S-358.2,615.9-367,615.9z M-370.2,640.2
		c-1.1,0-2-0.9-2-2c0-1.1,0.9-2,2-2c1.1,0,2,0.9,2,2C-368.2,639.3-369.1,640.2-370.2,640.2z M-362.1,640.2c-1.1,0-2-0.9-2-2
		c0-1.1,0.9-2,2-2c1.1,0,2,0.9,2,2C-360.1,639.3-361,640.2-362.1,640.2z M-360.8,635.1h-10.7l-2.1-6.8h1.8h0.3l-0.8-2.7h-2.1v-2h3.6
		l1.4,4.7h10.7L-360.8,635.1z"/>
</g>
</svg>
